<?xml version="1.0" encoding="utf-8" standalone="yes"?>
<!DOCTYPE svg PUBLIC "-//W3C//DTD SVG 1.1//EN" "http://www.w3.org/Graphics/SVG/1.1/DTD/svg11.dtd">
<svg width="761" height="424" viewBox="0 0 761 424" style="fill:none;stroke:none;fill-rule:evenodd;clip-rule:evenodd;stroke-linecap:round;stroke-linejoin:round;stroke-miterlimit:1.5;" version="1.1" xmlns="http://www.w3.org/2000/svg" xmlns:xlink="http://www.w3.org/1999/xlink"><style id="fontImports">@import url("https://fonts.googleapis.com/css2?family=M+PLUS+Rounded+1c:wght@400;700&amp;display=block");</style><g id="items" style="isolation: isolate"><g id="blend" style="mix-blend-mode:normal"><g id="g-root-1.cu_sy_24vkdimvuo7-fill" data-item-order="-128140" transform="translate(17.26751708984375, 74.64981079101562)"><g id="1.cu_sy_24vkdimvuo7-fill" stroke="none" fill="#426397"><g><path d="M 1.9 103.1L 2.6 105.9L 22.8 104.2L 21.3 98.1ZM 22.8 104.2L 27.3 43.6L 7 46.7L 2.6 105.9ZM 7 46.7L 30.8 106.7L 50.3 101.7L 27.3 43.6ZM 50.3 101.7L 38.4 6.5L 18.9 11.3L 30.8 106.7ZM 18.9 11.3L 54.6 106.8L 73.9 101.2L 38.4 6.5ZM 73.9 101.2L 55 12.6L 36 19.3L 54.6 106.8ZM 36 19.3L 80.5 107.3L 99.4 100.3L 55 12.6ZM 99.4 100.3L 77.2 9.1L 58.3 15.8L 80.5 107.3ZM 58.3 15.8L 103.6 110.4L 122.6 103.8L 77.2 9.1ZM 122.6 103.8L 100.9 8.8L 81.9 15.4L 103.6 110.4ZM 81.9 15.4L 124.1 103.6L 143.2 97.1L 100.9 8.8ZM 143.2 97.1L 124.6 10.8L 105.6 17.4L 124.1 103.6ZM 105.6 17.4L 150.8 109.7L 169.9 103.1L 124.6 10.8ZM 169.9 103.1L 149.2 6.3L 130.1 12.7L 150.8 109.7ZM 130.1 12.7L 164.4 86.2L 184.1 81.2L 149.2 6.3ZM 184.1 81.2L 180 14.1L 160.2 16.9L 164.4 86.2ZM 160.2 16.9L 163 29.5L 184.6 34.3L 180 14.1ZM 184.6 34.3L 190 27.4L 186.3 25L 213.4 18.7L 201.5 11L 173.7 15.7L 163 29.5ZM 213.4 18.7L 221.5 5.3L 200.3 1.8L 186.3 25ZM 200.3 1.8L 204.6 21.5L 224.1 17.2L 221.5 5.3Z" fill-rule="nonzero"></path></g></g></g><g id="g-root-2.cu_sy_1lsew99imvsw8-fill" data-item-order="-128136" transform="translate(185.26760864257812, 74.64981079101562)"><g id="2.cu_sy_1lsew99imvsw8-fill" stroke="none" fill="#954643"><g><path d="M 5.899908 123.2L 7.399908 134.3L 27.299908 131.8L 25.699908 120.4ZM 27.299908 131.8L 20.299908 70L 0.899908 76.2L 7.399908 134.3ZM 0.899908 76.2L 31.799908 131.5L 50.999908 124.8L 20.299908 70ZM 50.999908 124.8L 35.899908 31.5L 16.599908 37L 31.799908 131.5ZM 16.599908 37L 54.799908 126.9L 73.999908 121L 35.899908 31.5ZM 73.999908 121L 54.799908 20.9L 34.999908 24L 54.799908 126.9ZM 34.999908 24L 37.599908 28.2L 51.599908 43L 65.799908 47.7L 103.999908 131.3L 123.299908 125.5L 85.199908 42.1L 66.399908 27.5L 55.399908 25.5L 54.799908 20.9ZM 123.299908 125.5L 109.099908 32.9L 89.599908 38.1L 103.999908 131.3ZM 89.599908 38.1L 125.599908 131.7L 144.999908 126.4L 109.099908 32.9ZM 144.999908 126.4L 128.399908 29.9L 109.199908 36.2L 125.599908 131.7ZM 109.199908 36.2L 154.999908 128.1L 173.699908 120.8L 128.399908 29.9ZM 173.699908 120.8L 146.499908 29.4L 127.799908 36.8L 154.999908 128.1ZM 127.799908 36.8L 166.299908 114.5L 185.899908 109.1L 146.499908 29.4ZM 185.899908 109.1L 179.799908 35.4L 159.999908 39L 166.299908 114.5ZM 159.999908 39L 166.299908 60.5L 187.699908 62.7L 179.799908 35.4ZM 187.699908 62.7L 202.399908 34.4L 179.399908 35.2L 166.299908 60.5ZM 179.399908 35.2L 185.999908 46.1L 210.199908 47.4L 202.399908 34.4ZM 210.199908 47.4L 223.299908 30.5L 201.999908 25.3L 185.999908 46.1ZM 201.999908 25.3L 204.699908 40.5L 224.399908 37L 223.299908 30.5ZM 36.899908 41.3L 80.499908 132.5L 98.599908 123.8L 54.999908 32.7Z" fill-rule="nonzero"></path></g></g></g><g id="g-root-3.cu_sy_1414vrhimvv9d-fill" data-item-order="-128132" transform="translate(353.267578125, 98.64981079101562)"><g id="3.cu_sy_1414vrhimvv9d-fill" stroke="none" fill="#41735b"><g><path d="M 5.599908 130.2L 6.199908 130.8L 25.599908 121.4L 19.099908 115.4ZM 25.599908 121.4L 22.099908 69.9L 2.399908 74.9L 6.199908 130.8ZM 2.399908 74.9L 27.199908 130L 46.599908 124.4L 22.099908 69.9ZM 46.599908 124.4L 32.899908 30.1L 13.399908 35.3L 27.199908 130ZM 13.399908 35.3L 53.099908 135L 72.399908 129.5L 32.899908 30.1ZM 72.399908 129.5L 54.599908 29.1L 35.399908 35.2L 53.099908 135ZM 35.399908 35.2L 78.299908 128.8L 97.799908 123.3L 54.599908 29.1ZM 97.799908 123.3L 85.399908 29.2L 65.999908 34.4L 78.299908 128.8ZM 65.999908 34.4L 106.599908 132.3L 125.499908 125.6L 85.399908 29.2ZM 125.499908 125.6L 98.799908 34.6L 79.999908 41.6L 106.599908 132.3ZM 79.999908 41.6L 123.599908 135L 142.799908 128.8L 98.799908 34.6ZM 142.799908 128.8L 125.099908 31L 105.799908 36.6L 123.599908 135ZM 105.799908 36.6L 143.899908 131.2L 163.299908 125.8L 125.099908 31ZM 163.299908 125.8L 148.699908 36.1L 129.499908 42.6L 143.899908 131.2ZM 129.499908 42.6L 165.499908 110.7L 184.899908 104.5L 148.699908 36.1ZM 184.899908 104.5L 175.599908 32.1L 156.299908 38.7L 165.499908 110.7ZM 156.299908 38.7L 165.799908 54.6L 189.499908 55.3L 175.599908 32.1ZM 189.499908 55.3L 202.099908 36.7L 176.899908 38.3L 165.799908 54.6ZM 176.899908 38.3L 184.999908 47.6L 210.099908 45.8L 202.099908 36.7ZM 210.099908 45.8L 222.399908 26.9L 198.799908 26.5L 184.999908 47.6ZM 198.799908 26.5L 212.399908 49.1L 229.599908 38.8L 222.399908 26.9ZM 33.299908 22L 31.199908 30.7L 50.599908 35.3L 52.699908 26.6Z" fill-rule="nonzero"></path></g></g></g><g id="g-root-4.cu_sy_hunu8dimvuh6-fill" data-item-order="-128128" transform="translate(521.2676391601562, 122.64981079101562)"><g id="4.cu_sy_hunu8dimvuh6-fill" stroke="none" fill="#60703f"><g><path d="M 6.699878 35L 7.199878 43.5L 27.699878 54L 26.699878 34ZM 27.699878 54L 43.899878 43.5L 25.599878 31.5L 7.199878 43.5ZM 25.599878 31.5L 9.399878 128.1L 28.799878 133.8L 43.899878 43.5ZM 28.799878 133.8L 71.299878 36.9L 52.299878 30.5L 9.399878 128.1ZM 52.299878 30.5L 28.999878 126.5L 47.999878 133L 71.299878 36.9ZM 47.999878 133L 91.999878 37.3L 72.999878 30.8L 28.999878 126.5ZM 72.999878 30.8L 51.399878 126.4L 70.399878 133L 91.999878 37.3ZM 70.399878 133L 117.099878 36.8L 98.199878 29.8L 51.399878 126.4ZM 98.199878 29.8L 72.899878 127.9L 91.899878 134.3L 117.099878 36.8ZM 91.899878 134.3L 132.199878 39.1L 112.999878 33L 72.899878 127.9ZM 112.999878 33L 93.299878 126.1L 112.399878 132.6L 132.199878 39.1ZM 112.399878 132.6L 155.999878 42.8L 136.699878 36.7L 93.299878 126.1ZM 136.699878 36.7L 121.599878 128.4L 140.999878 133.7L 155.999878 42.8ZM 140.999878 133.7L 179.799878 35.6L 160.599878 29.7L 121.599878 128.4ZM 160.599878 29.7L 138.899878 126.1L 157.599878 133.8L 179.799878 35.6ZM 157.599878 133.8L 204.799878 57.4L 185.999878 49.9L 138.899878 126.1ZM 185.999878 49.9L 170.899878 122.8L 189.799878 130.2L 204.799878 57.4ZM 189.799878 130.2L 218.099878 83.2L 200.399878 73.8L 170.899878 122.8ZM 200.399878 73.8L 195.599878 84.1L 213.699878 92.5L 218.099878 83.2ZM 37.399878 12.9L 27.099878 24.9L 42.399878 37.8L 52.599878 25.9Z" fill-rule="nonzero"></path></g></g></g><g id="g-root-tx__40atpimvtoj-fill" data-item-order="0" transform="translate(244.00006103515625, 15.994842529296875)"><g id="tx__40atpimvtoj-fill" stroke="none" fill="#f4f4f4"><g><text style="font: bold 25px &quot;M Plus Rounded 1c&quot;, system-ui; white-space: pre;" font-weight="bold" font-size="25px" font-family="'M Plus Rounded 1c', system-ui"><tspan x="16.9" y="45.6" dominant-baseline="ideographic">재정 회복 프로세스</tspan></text></g></g></g><g id="g-root-tx__v7darximvv2c-fill" data-item-order="0" transform="translate(53.26751708984375, 110.64981079101562)"><g id="tx__v7darximvv2c-fill" stroke="none" fill="#f4f4f4"><g><text style="font: 20px &quot;Arial&quot;, Helvetica, sans-serif; white-space: pre;" font-size="20px" font-family="'Arial', Helvetica, sans-serif"><tspan x="16.43" y="33.6" dominant-baseline="ideographic">채무 감면</tspan></text></g></g></g><g id="g-root-tx__mdlpsdimvuva-fill" data-item-order="0" transform="translate(221.26751708984375, 134.64981079101562)"><g id="tx__mdlpsdimvuva-fill" stroke="none" fill="#f4f4f4"><g><text style="font: 20px &quot;Arial&quot;, Helvetica, sans-serif; white-space: pre;" font-size="20px" font-family="'Arial', Helvetica, sans-serif"><tspan x="16.43" y="33.6" dominant-baseline="ideographic">법적 보호</tspan></text></g></g></g><g id="g-root-tx__dju4stimvuo8-fill" data-item-order="0" transform="translate(371.26751708984375, 146.6497802734375)"><g id="tx__dju4stimvuo8-fill" stroke="none" fill="#f4f4f4"><g><text style="font: 20px &quot;Arial&quot;, Helvetica, sans-serif; white-space: pre;" font-size="20px" font-family="'Arial', Helvetica, sans-serif"><tspan x="12.25" y="33.6" dominant-baseline="ideographic">생활 안정자금 </tspan><tspan x="53.83" y="57.6" dominant-baseline="ideographic">확보</tspan></text></g></g></g><g id="g-root-tx__hrjgstimx7gq-fill" data-item-order="0" transform="translate(539.2675170898438, 170.6497802734375)"><g id="tx__hrjgstimx7gq-fill" stroke="none" fill="#f4f4f4"><g><text style="font: 20px &quot;Arial&quot;, Helvetica, sans-serif; white-space: pre;" font-size="20px" font-family="'Arial', Helvetica, sans-serif"><tspan x="12.25" y="33.6" dominant-baseline="ideographic">맞춤형 상환 계</tspan><tspan x="44.12" y="57.6" dominant-baseline="ideographic">획 설계</tspan></text></g></g></g><g id="g-root-tx__1qbcrt9imvtad-fill" data-item-order="0" transform="translate(29.26751708984375, 194.64974975585938)"><g id="tx__1qbcrt9imvtad-fill" stroke="none" fill="#f4f4f4"><g><text style="font: 20px &quot;Arial&quot;, Helvetica, sans-serif; white-space: pre;" font-size="20px" font-family="'Arial', Helvetica, sans-serif"><tspan x="12" y="33.6" dominant-baseline="ideographic">금융기관, 사채, </tspan><tspan x="12" y="57.6" dominant-baseline="ideographic">보증 등 모든 채</tspan><tspan x="12" y="81.6" dominant-baseline="ideographic">무 조정이 가능</tspan><tspan x="12" y="105.6" dominant-baseline="ideographic">합니다</tspan></text></g></g></g><g id="g-root-tx__1hhl6tpimvt3b-fill" data-item-order="0" transform="translate(197.26751708984375, 218.64974975585938)"><g id="tx__1hhl6tpimvt3b-fill" stroke="none" fill="#f4f4f4"><g><text style="font: 20px &quot;Arial&quot;, Helvetica, sans-serif; white-space: pre;" font-size="20px" font-family="'Arial', Helvetica, sans-serif"><tspan x="12" y="33.6" dominant-baseline="ideographic">채권자의 추심, </tspan><tspan x="12" y="57.6" dominant-baseline="ideographic">독촉 등 중지 가</tspan><tspan x="12" y="81.6" dominant-baseline="ideographic">능하며, 공무원, </tspan><tspan x="12" y="105.6" dominant-baseline="ideographic">교사 등 개별 자</tspan><tspan x="12" y="129.6" dominant-baseline="ideographic">격의 법적 보호</tspan><tspan x="12" y="153.6" dominant-baseline="ideographic">를 받습니다</tspan></text></g></g></g><g id="g-root-tx__1lynn4dimvuh5-fill" data-item-order="0" transform="translate(365.26751708984375, 242.64974975585938)"><g id="tx__1lynn4dimvuh5-fill" stroke="none" fill="#f4f4f4"><g><text style="font: 20px &quot;Arial&quot;, Helvetica, sans-serif; white-space: pre;" font-size="20px" font-family="'Arial', Helvetica, sans-serif"><tspan x="12" y="33.6" dominant-baseline="ideographic">임대 보증금 및 </tspan><tspan x="12" y="57.6" dominant-baseline="ideographic">생계비를 위한 </tspan><tspan x="12" y="81.6" dominant-baseline="ideographic">자금을 확보합</tspan><tspan x="12" y="105.6" dominant-baseline="ideographic">니다</tspan></text></g></g></g><g id="g-root-tx__1lqjgzximx81v-fill" data-item-order="0" transform="translate(533.2675170898438, 266.6497497558594)"><g id="tx__1lqjgzximx81v-fill" stroke="none" fill="#f4f4f4"><g><text style="font: 20px &quot;Arial&quot;, Helvetica, sans-serif; white-space: pre;" font-size="20px" font-family="'Arial', Helvetica, sans-serif"><tspan x="12" y="33.6" dominant-baseline="ideographic">개인의 상황에 </tspan><tspan x="12" y="57.6" dominant-baseline="ideographic">적합한 채무 변</tspan><tspan x="12" y="81.6" dominant-baseline="ideographic">제 계획 설계로 </tspan><tspan x="12" y="105.6" dominant-baseline="ideographic">신용 회복 계획</tspan><tspan x="12" y="129.6" dominant-baseline="ideographic">가능 합니다</tspan></text></g></g></g><g id="g-root-1.cu_sy_24vkdimvuo7-stroke" data-item-order="-128140" transform="translate(17.26751708984375, 74.64981079101562)"><g id="1.cu_sy_24vkdimvuo7-stroke" fill="none" stroke-linecap="round" stroke-linejoin="round" stroke-miterlimit="4" stroke="#f4f4f4" stroke-width="4"><g><path d="M 10 106C 10 90.1 10.1 74.2 10 58.3C 9.9 42.2 9.6 26.1 10 10C 34 9.7 58.1 9.3 82.1 10C 105.8 10.7 129.6 10.4 153.3 10C 177.5 9.6 201.8 11.6 226 10C 209.7 17.4 194.6 27.2 178 34C 178.5 58 179.7 82.1 178 106C 151.3 104.8 124.5 105.4 97.8 106C 68.5 106.7 39.2 104.7 10 106"></path><path d="M 10 106L 10 10L 226 10L 178 34L 178 106L 10 106Z"></path></g></g></g><g id="g-root-2.cu_sy_1lsew99imvsw8-stroke" data-item-order="-128136" transform="translate(185.26760864257812, 74.64981079101562)"><g id="2.cu_sy_1lsew99imvsw8-stroke" fill="none" stroke-linecap="round" stroke-linejoin="round" stroke-miterlimit="4" stroke="#f4f4f4" stroke-width="4"><g><path d="M 9.999908 130C 11.899908 113.9 9.799908 97.6 9.999908 81.5C 10.199908 65.6 9.199908 49.8 9.999908 34C 29.699908 35.4 49.499908 35.8 69.199908 34C 85.199908 32.6 101.499908 32.5 117.499908 34C 136.299908 35.7 155.299908 33.4 174.199908 34C 191.499908 34.5 208.799908 35.7 225.999908 34C 209.199908 40.2 194.399908 50.8 177.999908 58C 177.899908 69.4 178.899908 80.9 177.999908 92.3C 176.999908 104.8 177.299908 117.4 177.999908 130C 148.999908 128.1 119.799908 131.6 90.799908 130C 63.899908 128.5 36.899908 131.5 9.999908 130M 57.999908 10C 58.599908 18 57.499908 26 57.999908 34C 41.999908 34.6 25.999908 35.1 9.999908 34C 26.699908 27.7 41.599908 17.1 57.999908 10"></path><path d="M 10 130L 10 34L 226 34L 178 58L 178 130L 10 130ZM 58 10L 58 34L 10 34L 58 10Z"></path></g></g></g><g id="g-root-3.cu_sy_1414vrhimvv9d-stroke" data-item-order="-128132" transform="translate(353.267578125, 98.64981079101562)"><g id="3.cu_sy_1414vrhimvv9d-stroke" fill="none" stroke-linecap="round" stroke-linejoin="round" stroke-miterlimit="4" stroke="#f4f4f4" stroke-width="4"><g><path d="M 9.999908 130C 9.399908 114.9 11.099908 99.8 9.999908 84.7C 8.699908 67.9 11.199908 50.9 9.999908 34C 23.999908 34.4 37.899908 34 51.899908 34C 67.199908 34 82.599908 34.1 97.899908 34C 111.299908 33.9 124.599908 34.1 137.999908 34C 151.499908 33.9 165.099908 34.4 178.599908 34C 194.399908 33.5 210.199908 34.5 225.999908 34C 209.699908 41.4 194.499908 51 177.999908 58C 177.699908 70.8 177.499908 83.7 177.999908 96.5C 178.499908 107.7 179.199908 118.9 177.999908 130C 159.499908 131.9 140.799908 130.2 122.199908 130C 102.899908 129.8 83.699908 129.7 64.499908 130C 46.299908 130.3 28.099908 129.2 9.999908 130M 57.999908 10C 59.699908 17.8 57.199908 26 57.999908 34C 41.999908 33.6 25.999908 34.6 9.999908 34C 25.799908 25.6 41.499908 16.9 57.999908 10"></path><path d="M 10 130L 10 34L 226 34L 178 58L 178 130L 10 130ZM 58.000022 10L 58.000022 34L 10.000122 34L 58.000022 10Z"></path></g></g></g><g id="g-root-4.cu_sy_hunu8dimvuh6-stroke" data-item-order="-128128" transform="translate(521.2676391601562, 122.64981079101562)"><g id="4.cu_sy_hunu8dimvuh6-stroke" fill="none" stroke-linecap="round" stroke-linejoin="round" stroke-miterlimit="4" stroke="#f4f4f4" stroke-width="4"><g><path d="M 9.999878 130C 10.799878 98 9.499878 66 9.999878 34C 37.499878 33.4 64.999878 35.2 92.499878 34C 116.999878 32.9 141.499878 33 165.999878 34C 166.599878 30.1 165.899878 26 165.999878 22C 172.999878 31.8 181.599878 40.4 188.499878 50.2C 196.399878 61.2 204.799878 72 213.999878 82C 206.799878 92.3 198.999878 102.2 190.699878 111.6C 181.899878 121.6 174.699878 133 165.999878 143C 166.799878 138.7 167.099878 134.2 165.999878 130C 140.199878 129.5 114.299878 130.2 88.399878 130C 62.299878 129.8 36.099878 131.9 9.999878 130M 57.999878 10C 58.099878 18 59.199878 26.1 57.999878 34C 42.099878 35.9 25.999878 34.5 9.999878 34C 26.199878 26.3 41.199878 16.2 57.999878 10"></path><path d="M 10 130L 10 34L 166 34L 166 22L 214 82L 166 143L 166 130L 10 130ZM 57.9999 10L 57.9999 34L 10 34L 57.9999 10Z"></path></g></g></g><g id="g-root-tx__40atpimvtoj-stroke" data-item-order="0" transform="translate(244.00006103515625, 15.994842529296875)"></g><g id="g-root-tx__v7darximvv2c-stroke" data-item-order="0" transform="translate(53.26751708984375, 110.64981079101562)"></g><g id="g-root-tx__mdlpsdimvuva-stroke" data-item-order="0" transform="translate(221.26751708984375, 134.64981079101562)"></g><g id="g-root-tx__dju4stimvuo8-stroke" data-item-order="0" transform="translate(371.26751708984375, 146.6497802734375)"></g><g id="g-root-tx__hrjgstimx7gq-stroke" data-item-order="0" transform="translate(539.2675170898438, 170.6497802734375)"></g><g id="g-root-tx__1qbcrt9imvtad-stroke" data-item-order="0" transform="translate(29.26751708984375, 194.64974975585938)"></g><g id="g-root-tx__1hhl6tpimvt3b-stroke" data-item-order="0" transform="translate(197.26751708984375, 218.64974975585938)"></g><g id="g-root-tx__1lynn4dimvuh5-stroke" data-item-order="0" transform="translate(365.26751708984375, 242.64974975585938)"></g><g id="g-root-tx__1lqjgzximx81v-stroke" data-item-order="0" transform="translate(533.2675170898438, 266.6497497558594)"></g></g></g></svg>