<?xml version="1.0" encoding="utf-8" standalone="yes"?>
<!DOCTYPE svg PUBLIC "-//W3C//DTD SVG 1.1//EN" "http://www.w3.org/Graphics/SVG/1.1/DTD/svg11.dtd">
<svg 
    width="62" height="62" viewBox="0 0 62 62" 
    style="fill:none;stroke:none;fill-rule:evenodd;clip-rule:evenodd;stroke-linecap:round;stroke-linejoin:round;stroke-miterlimit:1.5;" 
    version="1.1" xmlns="http://www.w3.org/2000/svg" xmlns:xlink="http://www.w3.org/1999/xlink">
    <g id="items" style="isolation: isolate">
    <g id="blend" style="mix-blend-mode:normal">
    <g id="g-root-shie_v8lze6jgktms-fill" data-item-order="1000000000" transform="translate(3, 3)"></g>
    <g id="g-root-shie_v8lze6jgktms-stroke" data-item-order="1000000000" transform="translate(3, 3)">
    <g id="shie_v8lze6jgktms-stroke" fill="none" stroke-linecap="round" stroke-linejoin="round" stroke-miterlimit="4" stroke="#404040" stroke-width="2"><g><path d="M 39.271 16.719999L 10.771 16.719999M 24.271 30.219999L 13.021 30.219999C 11.778359 30.220001 10.771 29.212643 10.771 27.970001L 10.771 12.97C 10.771 11.72736 11.778359 10.72 13.021 10.72L 37.021 10.72C 38.263641 10.72 39.271 11.72736 39.271 12.97L 39.271 24.219999M 36.271 21.219999L 31.771 21.219999M 18.271 24.219999L 13.771 24.219999M 21.271 21.219999L 13.771 21.219999M 36.271 30.219999L 36.271 39.220001M 40.771 34.720001L 31.771 34.720001M 37.074997 45.065502L 37.904503 44.7505C 41.849499 43.2505 45.271 39.4645 45.271 35.2435L 45.271 30.153999C 45.271927 29.530363 44.902386 28.965736 44.330498 28.716999C 41.741402 27.749746 39.003262 27.242119 36.239502 27.217001C 33.496548 27.240467 30.779301 27.748268 28.213001 28.716999C 27.640789 28.965595 27.270723 29.530123 27.271 30.153999L 27.271 35.2435C 27.271 39.4645 30.628 43.247501 34.572998 44.7505L 35.4025 45.065502C 35.941067 45.270973 36.53643 45.270973 37.074997 45.065498Z"></path></g></g></g></g></g></svg>