<?xml version="1.0" encoding="utf-8" standalone="yes"?>
<!DOCTYPE svg PUBLIC "-//W3C//DTD SVG 1.1//EN" "http://www.w3.org/Graphics/SVG/1.1/DTD/svg11.dtd">
<svg width="62" height="62" viewBox="0 0 62 62" style="fill:none;stroke:none;fill-rule:evenodd;clip-rule:evenodd;stroke-linecap:round;stroke-linejoin:round;stroke-miterlimit:1.5;" version="1.1" xmlns="http://www.w3.org/2000/svg" xmlns:xlink="http://www.w3.org/1999/xlink"><g id="items" style="isolation: isolate"><g id="blend" style="mix-blend-mode:normal"><g id="g-root-bank_1hhkeb2jqsrv2-fill" data-item-order="1000000000" transform="translate(3, 3)"></g><g id="g-root-bank_1hhkeb2jqsrv2-stroke" data-item-order="1000000000" transform="translate(3, 3)"><g id="bank_1hhkeb2jqsrv2-stroke" fill="none" stroke-linecap="round" stroke-linejoin="round" stroke-miterlimit="4" stroke="#404040" stroke-width="2"><g><path d="M 28 19.75C 30.685772 19.566891 33.347809 20.355919 35.5 21.973M 45.25 24.25C 45.25 25.906855 43.906857 27.25 42.25 27.25M 24.325001 15.67C 23.155413 13.599174 20.739834 12.573245 18.4375 13.1695C 18.173887 13.238466 17.968418 13.444983 17.900791 13.708942C 17.833166 13.972902 17.914022 14.252775 18.112 14.440001C 18.838287 15.124439 19.35445 16.001707 19.6 16.969C 19.678183 17.279654 19.550426 17.605671 19.282 17.7805C 16.417685 19.537575 14.445657 22.439898 13.867 25.75L 12.25 25.75C 11.421573 25.75 10.75 26.421572 10.75 27.25L 10.75 30.25C 10.75 31.078428 11.421573 31.75 12.25 31.75L 14.8 31.75C 17.425848 36.546837 22.535131 39.449841 28 39.25C 35.870499 39.25 42.25 33.878498 42.25 27.25C 42.25 19.4995 33.549999 13.6 24.325001 15.67ZM 19 24.625C 19.207108 24.625 19.375 24.792892 19.375 25C 19.375 25.207108 19.207108 25.375 19 25.375C 18.792892 25.375 18.625 25.207108 18.625 25C 18.625822 24.793234 18.793234 24.62582 19 24.625M 21.256001 37.819L 19.756001 43M 34.756001 37.819L 36.256001 43"></path></g></g></g></g></g></svg>