<?xml version="1.0" encoding="utf-8" standalone="yes"?>
<!DOCTYPE svg PUBLIC "-//W3C//DTD SVG 1.1//EN" "http://www.w3.org/Graphics/SVG/1.1/DTD/svg11.dtd">
<svg width="62" height="62" viewBox="0 0 62 62" style="fill:none;stroke:none;fill-rule:evenodd;clip-rule:evenodd;stroke-linecap:round;stroke-linejoin:round;stroke-miterlimit:1.5;" version="1.1" xmlns="http://www.w3.org/2000/svg" xmlns:xlink="http://www.w3.org/1999/xlink"><g id="items" style="isolation: isolate"><g id="blend" style="mix-blend-mode:normal"><g id="g-root-plan_meub8ujqhki3-fill" data-item-order="1000000000" transform="translate(3, 3)"></g><g id="g-root-plan_meub8ujqhki3-stroke" data-item-order="1000000000" transform="translate(3, 3)"><g id="plan_meub8ujqhki3-stroke" fill="none" stroke-linecap="round" stroke-linejoin="round" stroke-miterlimit="4" stroke="#404040" stroke-width="2"><g><path d="M 16.75 28.51C 16.586273 28.657227 16.453669 28.835732 16.360001 29.035L 11.68 39.535C 11.46311 40.02301 11.508284 40.587677 11.8 41.034996C 12.080121 41.418369 12.525209 41.646477 13 41.650002L 43 41.650002C 43.507095 41.652447 43.981098 41.398521 44.260002 40.974998C 44.551716 40.527679 44.596889 39.963005 44.379997 39.474998L 39.699997 28.974998C 39.458366 28.437462 38.924351 28.091228 38.334999 28.09L 28 28.09M 15.76 31.150002L 40.584999 31.150002M 35.334999 15.295C 36.133461 15.46432 36.789883 16.030201 37.074997 16.795C 37.43824 17.855228 37.02927 19.026363 36.084999 19.630001L 22.344999 28.210001C 22.06328 28.397263 21.69672 28.397263 21.415001 28.210001L 16.375 24.655001C 16.266453 24.563797 16.203777 24.429276 16.203777 24.287498C 16.203777 24.145725 16.266453 24.011202 16.375 23.92L 18.505001 22C 18.658154 21.911577 18.846848 21.911577 19 22L 21.610001 23.5L 25 21.205L 18.594999 17.275C 18.455715 17.164005 18.37458 16.995602 18.37458 16.817501C 18.37458 16.639399 18.455715 16.470997 18.594999 16.360001L 20.094999 15.205C 20.254303 15.099379 20.452942 15.07179 20.635 15.13L 29.5 18.4L 33.564999 15.625C 34.082638 15.271705 34.724831 15.151974 35.335003 15.295ZM 17.5 35.650002L 19.75 35.650002M 23.5 35.650002L 25.75 35.650002M 29.5 35.650002L 31.75 35.650002M 35.5 35.650002L 37.75 35.650002"></path></g></g></g></g></g></svg>