<?xml version="1.0" encoding="utf-8" standalone="yes"?>
<!DOCTYPE svg PUBLIC "-//W3C//DTD SVG 1.1//EN" "http://www.w3.org/Graphics/SVG/1.1/DTD/svg11.dtd">
<svg width="62" height="62" viewBox="0 0 62 62" style="fill:none;stroke:none;fill-rule:evenodd;clip-rule:evenodd;stroke-linecap:round;stroke-linejoin:round;stroke-miterlimit:1.5;" version="1.1" xmlns="http://www.w3.org/2000/svg" xmlns:xlink="http://www.w3.org/1999/xlink"><g id="items" style="isolation: isolate"><g id="blend" style="mix-blend-mode:normal"><g id="g-root-give_5w2nij6mmm9-fill" data-item-order="1000000000" transform="translate(3, 3)"></g><g id="g-root-give_5w2nij6mmm9-stroke" data-item-order="1000000000" transform="translate(3, 3)"><g id="give_5w2nij6mmm9-stroke" fill="none" stroke-linecap="round" stroke-linejoin="round" stroke-miterlimit="4" stroke="#404040" stroke-width="2"><g><path d="M 44.881001 44.875L 44.881001 28.375M 41.787998 28.375C 42.287613 24.428036 40.798546 20.490044 37.812408 17.861137C 34.826275 15.232234 30.731327 14.254226 26.879501 15.25C 26.286875 15.395672 25.783691 15.785561 25.494654 16.323038C 25.205618 16.860516 25.157782 17.495275 25.362999 18.07L 25.362999 18.07C 25.785633 19.215136 27.000469 19.860638 28.186001 19.57C 30.352549 19.067472 32.63039 19.552433 34.404346 20.893908C 36.178299 22.23538 37.265381 24.294991 37.372002 26.5165C 37.421722 27.667139 37.023903 28.792322 36.262001 29.656002L 34.678001 31.465C 34.131786 32.091225 33.350296 32.462845 32.519817 32.491276C 31.689335 32.519707 30.884262 32.202404 30.296501 31.615L 27.214001 28.532499C 26.335499 27.653265 24.910534 27.652802 24.03146 28.53146C 23.152386 29.41012 23.15218 30.835085 24.031 31.714001L 29.622999 38.050003C 30.748295 39.174957 31.380661 40.700829 31.381001 42.292L 31.381001 44.875M 40.681 21.6385C 43.250813 22.899639 44.879795 25.512415 44.881001 28.375M 14.881 30.625C 14.74712 31.654819 15.098921 32.688438 15.833241 33.42276C 16.567562 34.157078 17.601181 34.508881 18.631001 34.375C 16.2085 34.365997 15.004 35.665001 14.881 38.125C 15.027697 37.092384 14.680089 36.050911 13.942588 35.313412C 13.205087 34.575909 12.163616 34.228302 11.131 34.375C 12.160681 34.508255 13.193916 34.15625 13.928082 33.422085C 14.662247 32.68792 15.014254 31.654682 14.881001 30.625002ZM 15.04 22.375L 28.222 22.375M 25.299999 17.875L 17.5945 17.875C 17.310667 17.87501 17.051157 18.035244 16.924 18.289L 15.109 21.9175C 14.971329 22.193409 15.016555 22.525461 15.223001 22.754501L 21.073 29.255501C 21.21525 29.413891 21.41811 29.504366 21.631001 29.504366C 21.843891 29.504366 22.046751 29.413891 22.189001 29.255501L 28.039 22.754501C 28.245445 22.525461 28.290672 22.193409 28.153 21.9175L 26.962 19.5385M 12.631 13.375L 17.131001 13.375M 14.881 11.125L 14.881 15.625"></path></g></g></g></g></g></svg>