<?xml version="1.0" encoding="utf-8" standalone="yes"?>
<!DOCTYPE svg PUBLIC "-//W3C//DTD SVG 1.1//EN" "http://www.w3.org/Graphics/SVG/1.1/DTD/svg11.dtd">
<svg width="288" height="288" viewBox="0 0 288 288" style="fill:none;stroke:none;fill-rule:evenodd;clip-rule:evenodd;stroke-linecap:round;stroke-linejoin:round;stroke-miterlimit:1.5;" version="1.1" xmlns="http://www.w3.org/2000/svg" xmlns:xlink="http://www.w3.org/1999/xlink"><g id="items" style="isolation: isolate"><g id="blend" style="mix-blend-mode:normal"><g id="g-root-3.cu_sy_m981hqlolr0g-fill" data-item-order="999931808" transform="translate(3, 133.6259765625)"><g id="3.cu_sy_m981hqlolr0g-fill" stroke="none" fill="#91bb39"><g><path d="M 31.8365 21.5284C 31.4465 17.7145 31.2301 13.9006 31.2301 10L 104.1118 10.374C 104.1336 30.1978 120.408 46.374 140.27 46.374L 140.27 119.303C 136.37 119.303 132.744 119.086 128.975 118.696L 119.313 140.539C 110.387 139.109 101.8087 136.769 93.5767 133.648L 96.1331 109.898C 89.0709 106.7342 82.3984 102.877 76.2027 98.3697L 56.9227 112.455C 50.0337 106.8209 43.7079 100.4933 38.0755 93.6023L 52.1566 74.3161C 47.6506 68.1185 43.7947 61.4442 40.6319 54.3799L 16.889 56.9369C 13.7695 48.7024 11.4298 40.1211 10 31.1931L 31.8365 21.5284Z"></path></g></g></g><g id="g-root-4.cu_sy_m981hqlolr0h-fill" data-item-order="999931812" transform="translate(133.26953125, 133.9998779296875)"><g id="4.cu_sy_m981hqlolr0h-fill" stroke="none" fill="#ddc916"><g><path d="M 119.542 10.0432C 119.542 13.9438 119.326 17.2188 118.936 20.9893L 140.773 30.6541C 139.343 39.582 137.003 48.1633 133.884 56.3978L 110.141 53.8408C 106.9779 60.9052 103.1219 67.5795 98.616 73.7771L 112.697 93.0633C 107.0646 99.9543 100.7388 106.2819 93.8499 111.916L 74.5695 97.8306C 68.3739 102.3379 61.7017 106.1952 54.6395 109.359L 57.1959 133.109C 48.9638 136.23 40.3852 138.57 31.4599 140L 21.7979 118.157C 17.9852 118.547 13.8994 118.764 10 118.764L 10 45.9608C 30.2858 45.9608 46.7205 29.8423 46.7205 10L 119.542 10.0432Z"></path></g></g></g><g id="g-root-2.cu_sy_qp1jm6lolq87-fill" data-item-order="999931816" transform="translate(133.26953125, 3.0869140625)"><g id="2.cu_sy_qp1jm6lolq87-fill" stroke="none" fill="#1fa9d7"><g><path d="M 119.629 140.913C 119.629 137.013 119.413 132.825 119.023 129.011L 140.859 119.346C 139.43 110.418 137.09 101.8368 133.97 93.6023L 110.228 96.1593C 107.0647 89.095 103.2085 82.4207 98.7025 76.2231L 112.784 56.9369C 107.1512 50.0459 100.8256 43.7183 93.9367 38.0841L 74.6564 52.1695C 68.4607 47.6622 61.7885 43.805 54.7263 40.6412L 57.2824 16.891C 49.0504 13.7706 40.4717 11.4302 31.5465 10L 21.8847 31.8432C 18.1153 31.4532 13.8994 31.2365 10.000026 31.2365L 10.000026 104.2567C 30.2587 104.2567 46.6738 120.641 46.696 140.872L 119.629 140.913Z"></path></g></g></g><g id="g-root-1.cu_sy_qp1jm6lolq86-fill" data-item-order="999931820" transform="translate(3.0433349609375, 3)"><g id="1.cu_sy_qp1jm6lolq86-fill" stroke="none" fill="#3bc482"><g><path d="M 31.2298 141C 31.2298 137.099 31.4465 132.781 31.8365 129.011L 10 119.346C 11.4298 110.418 13.7693 101.8368 16.8888 93.6023L 40.6319 96.1593C 43.7947 89.095 47.6506 82.4206 52.1566 76.2231L 38.0755 56.9369C 43.7079 50.0459 50.0338 43.7183 56.9227 38.0841L 76.2027 52.1695C 82.3984 47.6622 89.0709 43.805 96.1331 40.6412L 93.5767 16.891C 101.8087 13.7706 110.387 11.4302 119.313 10L 128.974 31.8432C 132.787 31.4532 136.327 31.2365 140.226 31.2365L 140.226 104.3434C 120.396 104.3656 104.0138 120.763 104.0138 141L 31.2298 141Z"></path></g></g></g><g id="g-root-3.cu_sy_m981hqlolr0g-stroke" data-item-order="999931808" transform="translate(3, 133.6259765625)"><g id="3.cu_sy_m981hqlolr0g-stroke" fill="none" stroke-linecap="round" stroke-linejoin="round" stroke-miterlimit="4" stroke="#2c2c2c" stroke-width="2"><g><path d="M 31.2301 10C 31.2301 13.9006 31.4465 17.7145 31.8365 21.5284L 10 31.1931C 11.4298 40.1211 13.7695 48.7024 16.889 56.9369L 40.6319 54.3799C 43.7947 61.4442 47.6506 68.1185 52.1566 74.3161L 38.0755 93.6023C 43.7079 100.4933 50.0337 106.8209 56.9227 112.4551L 76.2027 98.3697C 82.3984 102.877 89.0709 106.7342 96.1331 109.898L 93.5767 133.6482C 101.8087 136.7686 110.3874 139.109 119.3126 140.5392L 128.9746 118.696C 132.744 119.0861 136.3701 119.3027 140.2695 119.3027L 140.2695 46.374C 120.4083 46.374 104.1336 30.1978 104.1118 10.374L 31.2301 10Z"></path></g></g></g><g id="g-root-4.cu_sy_m981hqlolr0h-stroke" data-item-order="999931812" transform="translate(133.26953125, 133.9998779296875)"><g id="4.cu_sy_m981hqlolr0h-stroke" fill="none" stroke-linecap="round" stroke-linejoin="round" stroke-miterlimit="4" stroke="#2c2c2c" stroke-width="2"><g><path d="M 119.5425 10.0432C 119.5425 13.9438 119.326 17.2188 118.9361 20.9893L 140.7726 30.6541C 139.3428 39.582 137.003 48.1633 133.8835 56.3978L 110.1407 53.8408C 106.9779 60.9052 103.1219 67.5795 98.616 73.7771L 112.6971 93.0633C 107.0646 99.9543 100.7388 106.2819 93.8499 111.916L 74.5695 97.8306C 68.3739 102.3379 61.7017 106.1952 54.6395 109.359L 57.1959 133.1091C 48.9638 136.2296 40.3852 138.57 31.4599 140.0002L 21.7979 118.1569C 17.9852 118.547 13.8994 118.7637 10 118.7637L 10 45.9608C 30.2858 45.9608 46.7205 29.8423 46.7205 10L 119.5425 10.0432Z"></path></g></g></g><g id="g-root-2.cu_sy_qp1jm6lolq87-stroke" data-item-order="999931816" transform="translate(133.26953125, 3.0869140625)"><g id="2.cu_sy_qp1jm6lolq87-stroke" fill="none" stroke-linecap="round" stroke-linejoin="round" stroke-miterlimit="4" stroke="#2c2c2c" stroke-width="2"><g><path d="M 119.6293 140.9133C 119.6293 137.0128 119.4126 132.8247 119.0227 129.0108L 140.8594 119.3461C 139.4296 110.4181 137.0898 101.8368 133.9703 93.6023L 110.2275 96.1593C 107.0647 89.095 103.2085 82.4207 98.7025 76.2231L 112.7836 56.9369C 107.1512 50.0459 100.8256 43.7183 93.9367 38.0841L 74.6564 52.1695C 68.4607 47.6622 61.7885 43.805 54.7263 40.6412L 57.2824 16.891C 49.0504 13.7706 40.4717 11.4302 31.5465 10L 21.8847 31.8432C 18.1153 31.4532 13.8994 31.2365 10 31.2365L 10 104.2567C 30.2587 104.2567 46.6738 120.6406 46.696 140.8722L 119.6293 140.9133Z"></path></g></g></g><g id="g-root-1.cu_sy_qp1jm6lolq86-stroke" data-item-order="999931820" transform="translate(3.0433349609375, 3)"><g id="1.cu_sy_qp1jm6lolq86-stroke" fill="none" stroke-linecap="round" stroke-linejoin="round" stroke-miterlimit="4" stroke="#2c2c2c" stroke-width="2"><g><path d="M 140.2262 104.3434C 120.3964 104.3656 104.0138 120.7631 104.0138 141C 79.7146 141 55.4997 141 31.2298 141C 31.2298 137.0994 31.4465 132.7814 31.8365 129.0108L 10 119.3461C 11.4298 110.4181 13.7693 101.8368 16.8888 93.6023L 40.6319 96.1593C 43.7947 89.095 47.6506 82.4206 52.1566 76.2231L 38.0755 56.9369C 43.7079 50.0459 50.0338 43.7183 56.9227 38.0841L 76.2027 52.1695C 82.3984 47.6622 89.0709 43.805 96.1331 40.6412L 93.5767 16.891C 101.8087 13.7706 110.3874 11.4302 119.3127 10L 128.9744 31.8432C 132.7871 31.4532 136.3268 31.2365 140.2262 31.2365L 140.2262 104.3434ZM 140.2262 104.3434L 140.2665 104.3433"></path></g></g></g></g></g></svg>