<?xml version="1.0" standalone="no"?>
<!DOCTYPE svg PUBLIC "-//W3C//DTD SVG 20010904//EN"
 "http://www.w3.org/TR/2001/REC-SVG-20010904/DTD/svg10.dtd">
<svg version="1.0" xmlns="http://www.w3.org/2000/svg"
 width="559.000000pt" height="317.000000pt" viewBox="0 0 559.000000 317.000000"
 preserveAspectRatio="xMidYMid meet">

<g transform="translate(0.000000,317.000000) scale(0.100000,-0.100000)"
fill="#780C06" stroke="none">
<path d="M1390 3151 c0 -5 -18 -12 -40 -16 -22 -4 -40 -11 -40 -16 0 -5 -5 -9
-12 -9 -6 0 -18 -7 -27 -15 -9 -8 -25 -22 -36 -33 -11 -10 -47 -49 -80 -87
-33 -38 -78 -88 -100 -111 -74 -79 -106 -114 -102 -114 2 0 -19 -24 -47 -54
-100 -104 -136 -145 -136 -154 0 -5 -11 -15 -25 -22 -14 -7 -23 -15 -21 -17 2
-2 -16 -24 -41 -49 -25 -24 -43 -44 -40 -44 2 0 -12 -17 -32 -38 -91 -97 -180
-194 -221 -241 -63 -74 -109 -124 -195 -216 -143 -154 -155 -168 -155 -179 0
-6 -7 -24 -16 -41 -19 -35 -25 -192 -8 -203 6 -4 16 -22 22 -40 15 -45 45 -85
122 -164 36 -37 85 -90 110 -118 76 -87 194 -217 295 -325 28 -29 70 -76 95
-105 25 -28 70 -78 100 -110 61 -66 148 -160 212 -233 24 -27 68 -75 98 -107
30 -32 75 -82 100 -110 83 -95 118 -127 154 -136 14 -3 26 -10 26 -15 0 -5 36
-9 80 -9 47 0 80 4 80 10 0 6 9 10 20 10 11 0 23 7 26 15 4 8 11 15 18 15 6 0
31 23 56 51 25 28 61 68 80 89 83 92 169 185 215 235 28 29 70 77 95 105 67
77 70 80 88 80 10 0 31 -16 47 -36 17 -20 46 -54 65 -75 19 -21 62 -68 95
-104 33 -36 85 -92 115 -125 30 -32 75 -81 100 -110 77 -88 85 -96 103 -103 9
-3 17 -11 17 -16 0 -5 14 -12 30 -16 17 -4 30 -11 30 -16 0 -5 36 -9 80 -9 47
0 80 4 80 10 0 6 9 10 20 10 11 0 23 7 26 15 4 8 11 15 16 15 11 0 66 56 138
139 25 29 75 84 112 122 37 38 66 69 64 69 -2 0 27 31 63 68 36 38 86 90 110
115 24 26 49 47 55 47 6 0 25 -16 41 -36 17 -20 46 -54 65 -75 19 -21 62 -68
95 -104 33 -37 85 -93 115 -125 30 -32 75 -82 100 -110 25 -29 56 -62 69 -74
14 -11 33 -29 42 -38 10 -10 30 -20 44 -24 14 -3 28 -10 31 -15 7 -13 154 -11
154 1 0 6 8 10 18 10 10 0 32 14 50 30 18 17 36 30 39 30 4 0 19 15 35 33 41
45 180 197 198 215 8 9 28 31 43 51 15 19 76 87 135 150 123 133 182 198 238
260 21 25 72 79 112 122 40 42 80 85 90 96 94 108 147 166 200 222 35 36 82
91 105 121 23 30 45 57 48 60 38 29 35 310 -2 310 -5 0 -9 6 -9 14 0 7 -35 50
-77 94 -43 45 -98 104 -123 132 -25 28 -63 72 -85 97 -22 24 -71 78 -110 118
-38 41 -90 97 -115 125 -69 79 -175 196 -295 324 -27 30 -70 77 -95 106 -25
28 -70 78 -100 110 -48 51 -112 121 -192 211 -13 14 -30 28 -38 32 -8 4 -26
14 -40 22 -14 8 -35 15 -47 15 -13 0 -23 5 -23 10 0 13 -67 13 -74 1 -4 -5
-25 -12 -48 -16 -42 -7 -56 -15 -86 -48 -9 -11 -33 -36 -52 -57 -19 -21 -55
-62 -80 -90 -25 -28 -76 -84 -115 -125 -38 -40 -90 -97 -115 -125 -25 -28 -64
-72 -87 -98 -24 -25 -43 -49 -43 -54 0 -18 -26 -5 -50 24 -14 16 -47 54 -75
83 -27 30 -70 77 -95 105 -25 29 -70 78 -100 110 -30 32 -75 81 -100 110 -79
91 -118 128 -139 135 -12 3 -21 10 -21 16 0 5 -18 12 -40 15 -22 4 -40 10 -40
15 0 5 -18 9 -40 9 -22 0 -40 -4 -40 -9 0 -5 -18 -12 -40 -16 -22 -4 -40 -10
-40 -15 0 -4 -11 -11 -25 -14 -14 -4 -25 -10 -25 -14 0 -5 -19 -29 -42 -54
-24 -26 -63 -70 -88 -98 -25 -28 -70 -77 -100 -110 -30 -32 -81 -87 -112 -122
-32 -35 -78 -85 -103 -112 -25 -28 -45 -53 -45 -58 0 -18 -26 -5 -50 23 -14
17 -41 48 -60 69 -19 21 -62 69 -95 105 -33 36 -85 92 -115 125 -30 32 -75 82
-100 110 -71 83 -119 128 -140 135 -11 4 -20 10 -20 16 0 5 -18 12 -40 15 -22
4 -40 10 -40 15 0 5 -18 9 -40 9 -22 0 -40 -4 -40 -9z m868 -990 c42 -46 129
-137 192 -202 63 -65 142 -148 175 -184 33 -37 65 -72 71 -79 38 -41 42 -175
6 -208 -9 -8 -39 -42 -67 -74 -42 -49 -121 -135 -235 -256 -14 -15 -52 -57
-85 -93 -33 -37 -85 -93 -115 -125 -30 -32 -63 -68 -73 -80 l-18 -22 -62 66
c-101 107 -169 181 -217 236 -25 28 -70 78 -100 110 -30 32 -89 95 -130 141
-41 45 -84 92 -94 103 -29 29 -29 141 -1 174 11 13 28 33 38 44 9 12 61 68
115 126 119 127 154 166 212 232 25 28 77 84 115 125 39 40 81 86 95 102 l25
30 38 -41 c21 -23 73 -79 115 -125z m1232 161 c0 -8 26 -37 185 -207 28 -30
70 -77 95 -105 25 -29 70 -78 100 -110 30 -32 75 -82 100 -110 25 -29 57 -64
72 -80 60 -62 60 -178 0 -240 -15 -16 -47 -51 -72 -80 -25 -29 -70 -78 -100
-110 -30 -33 -75 -82 -100 -110 -25 -28 -67 -75 -95 -105 -27 -29 -79 -86
-115 -125 -36 -40 -71 -79 -78 -86 -12 -12 -25 -2 -90 65 -43 44 -97 103 -122
131 -69 79 -163 182 -298 328 -84 90 -88 95 -105 131 -18 37 -23 141 -7 141 6
0 10 6 10 13 0 13 20 36 165 192 97 104 140 152 195 215 25 29 77 85 115 125
39 40 81 87 95 103 24 30 50 42 50 24z"/>
</g>
</svg>
